<mxfile host="app.diagrams.net" modified="2024-04-04T16:06:31.011Z" agent="Mozilla/5.0 (Macintosh; Intel Mac OS X 10_15_7) AppleWebKit/605.1.15 (KHTML, like Gecko) Version/16.3 Safari/605.1.15" version="24.2.2" etag="g6ekzG4I7uiAHWJgRkQJ" type="github">
  <diagram name="Page-1" id="WbAVTQXhoyQ-GJwMFJd-">
    <mxGraphModel>
      <root>
        <mxCell id="0" />
        <mxCell id="1" parent="0" />
      </root>
    </mxGraphModel>
  </diagram>
</mxfile>
